<?xml version="1.0" encoding="UTF-8" standalone="no"?>
<svg width="44px" height="44px" viewBox="0 0 44 44" version="1.1" xmlns="http://www.w3.org/2000/svg" xmlns:xlink="http://www.w3.org/1999/xlink">
    <!-- Generator: Sketch 3.7.2 (28276) - http://www.bohemiancoding.com/sketch -->
    <title>mus-mute</title>
    <desc>Created with Sketch.</desc>
    <defs></defs>
    <g id="44px-Glyph" stroke="none" stroke-width="1" fill="none" fill-rule="evenodd">
        <g id="mus-mute" fill="#ffffff">
            <path d="M39.4142,22 L43.7072,17.707 C44.0982,17.316 44.0982,16.684 43.7072,16.293 C43.3162,15.902 42.6842,15.902 42.2932,16.293 L38.0002,20.586 L33.7072,16.293 C33.3162,15.902 32.6842,15.902 32.2932,16.293 C31.9022,16.684 31.9022,17.316 32.2932,17.707 L36.5862,22 L32.2932,26.293 C31.9022,26.684 31.9022,27.316 32.2932,27.707 C32.4882,27.902 32.7442,28 33.0002,28 C33.2562,28 33.5122,27.902 33.7072,27.707 L38.0002,23.414 L42.2932,27.707 C42.4882,27.902 42.7442,28 43.0002,28 C43.2562,28 43.5122,27.902 43.7072,27.707 C44.0982,27.316 44.0982,26.684 43.7072,26.293 L39.4142,22 Z" id="Fill-166"></path>
            <path d="M23.3331,42 C22.7801,42 22.2521,41.828 21.8081,41.503 L8.6251,30 L3.0001,30 C1.1491,30 0.0001,28.868 0.0001,27.046 L0.0001,16.954 C0.0001,15.132 1.1491,14 3.0001,14 L8.6251,14 L21.7401,2.553 C22.2501,2.173 22.7781,2 23.3331,2 C24.8041,2 26.0001,3.082 26.0001,4.411 L26.0001,39.589 C26.0001,40.918 24.8041,42 23.3331,42" id="Fill-167"></path>
            <path d="M28.0001,16.3657 L28.0001,27.6347 C29.2661,26.0567 30.0001,24.0777 30.0001,21.9997 C30.0001,19.9227 29.2661,17.9427 28.0001,16.3657" id="Fill-168"></path>
        </g>
    </g>
</svg>