<?xml version="1.0" encoding="UTF-8" standalone="no"?>
<svg width="44px" height="44px" viewBox="0 0 44 44" version="1.1" xmlns="http://www.w3.org/2000/svg" xmlns:xlink="http://www.w3.org/1999/xlink">
    <!-- Generator: Sketch 3.7.2 (28276) - http://www.bohemiancoding.com/sketch -->
    <title>mus-vol-high</title>
    <desc>Created with Sketch.</desc>
    <defs></defs>
    <g id="44px-Glyph" stroke="none" stroke-width="1" fill="none" fill-rule="evenodd">
        <g id="mus-vol-high" fill="#ffffff">
            <path d="M23.3331,42 C22.7801,42 22.2521,41.828 21.8081,41.503 L8.6251,30 L3.0001,30 C1.1491,30 0.0001,28.868 0.0001,27.046 L0.0001,16.954 C0.0001,15.132 1.1491,14 3.0001,14 L8.6251,14 L21.7401,2.553 C22.2501,2.173 22.7781,2 23.3331,2 C24.8041,2 26.0001,3.082 26.0001,4.411 L26.0001,39.589 C26.0001,40.918 24.8041,42 23.3331,42" id="Fill-174"></path>
            <path d="M28.0001,16.3657 L28.0001,27.6347 C29.2661,26.0567 30.0001,24.0777 30.0001,21.9997 C30.0001,19.9227 29.2661,17.9427 28.0001,16.3657" id="Fill-175"></path>
            <path d="M35.0001,36.8545 C34.7331,36.8545 34.4681,36.7495 34.2701,36.5395 C33.8931,36.1355 33.9131,35.5025 34.3151,35.1255 C37.9801,31.6855 39.9981,27.0245 39.9981,22.0005 C39.9981,16.9755 37.9791,12.3135 34.3131,8.8745 C33.9111,8.4965 33.8911,7.8635 34.2691,7.4595 C34.6461,7.0575 35.2781,7.0375 35.6831,7.4155 C39.6961,11.1815 41.9981,16.4975 41.9981,22.0005 C41.9981,27.5025 39.6971,32.8175 35.6851,36.5845 C35.4911,36.7645 35.2451,36.8545 35.0001,36.8545" id="Fill-176"></path>
            <path d="M29.0011,33.9551 C28.6721,33.9551 28.3491,33.7931 28.1581,33.4941 C27.8601,33.0291 27.9951,32.4111 28.4611,32.1131 C31.9281,29.8931 33.9981,26.1111 33.9981,22.0001 C33.9981,17.8901 31.9301,14.1111 28.4651,11.8901 C28.0001,11.5931 27.8651,10.9751 28.1631,10.5091 C28.4601,10.0431 29.0791,9.9081 29.5451,10.2071 C33.5861,12.7971 35.9981,17.2061 35.9981,22.0001 C35.9981,26.7971 33.5841,31.2071 29.5391,33.7971 C29.3721,33.9041 29.1851,33.9551 29.0011,33.9551" id="Fill-177"></path>
        </g>
    </g>
</svg>