<?xml version="1.0" encoding="UTF-8"?>
<!DOCTYPE svg PUBLIC "-//W3C//DTD SVG 1.1//EN" "http://www.w3.org/Graphics/SVG/1.1/DTD/svg11.dtd">
<!-- Creator: CorelDRAW X7 -->
<svg xmlns="http://www.w3.org/2000/svg" xml:space="preserve" width="44px" height="44px" version="1.1" style="shape-rendering:geometricPrecision; text-rendering:geometricPrecision; image-rendering:optimizeQuality; fill-rule:evenodd; clip-rule:evenodd"
viewBox="0 0 4400000 4400000"
 xmlns:xlink="http://www.w3.org/1999/xlink">
 <defs>
  <style type="text/css">
   <![CDATA[
    .fil0 {fill:none}
    .fil1 {fill:#fff;fill-rule:nonzero}
   ]]>
  </style>
 </defs>
 <g id="Layer_x0020_1">
  <metadata id="CorelCorpID_0Corel-Layer"/>
  <rect class="fil0" x="57" y="53" width="4399888" height="4399888"/>
  <g id="_1507230832">
   <path class="fil0" d="M2627670 932109l530659 0c366254,0 663177,296924 663177,663177l0 530542m-928566 -1458990l-265270 265271 265270 265271"/>
   <g>
    <path class="fil1" d="M2583025 981242l-2244 -2244 1181 1181 1063 1063zm-2244 -2244l-6496 -7559 -1181 -1535c-7441,-10748 -11811,-23740 -11811,-37795 0,-14055 4370,-27046 11811,-37676l1181 -1654 6496 -7559 2244 -2244 263026 -263026c25866,-25866 67913,-25866 93778,0 25866,25865 25866,67912 0,93777l-152005 152006 370505 0c201257,0 383852,81848 515778,213775 131927,131927 213776,314522 213776,515778l0 530542c0,36614 -29763,66377 -66377,66377 -36613,0 -66376,-29763 -66376,-66377l0 -530542c0,-164760 -66968,-314167 -174800,-422000 -107833,-107833 -257240,-174800 -422001,-174800l-370505 0 152005 152005c25866,25866 25866,67912 0,93778 -25865,25866 -67912,25866 -93778,0l-263026 -263027 -2244 -2244z"/>
   </g>
   <g>
    <path class="fil1" d="M1702765 3479111l2244 2244 -1181 -1181 -1063 -1063zm2244 2244l6496 7559 1181 1653c7441,10748 11811,23622 11811,37677 0,14055 -4370,27047 -11811,37795l-1181 1535 -6496 7559 -2244 2244 -263027 263027c-25866,25865 -67912,25865 -93778,0 -25866,-25866 -25866,-67912 0,-93778l152005 -152005 -370505 0c-201020,0 -383497,-81849 -515542,-213776l-118 -118 -118 -118 -1535 -1536c-130982,-131926 -212241,-313813 -212241,-514006l355 0 118 -530542c0,-36377 29645,-66022 66022,-66022 36377,0 66023,29645 66023,66022l-119 530542 355 0c0,164524 66377,313459 173619,421055l945 945 236 236c107714,107833 257003,174564 422000,174564l370505 0 -152005 -152005c-25866,-25866 -25866,-67912 0,-93778 25866,-25865 67912,-25865 93778,0l263027 263027 2244 2244z"/>
   </g>
   <path class="fil1" d="M2080593 1606743l-1654 0 -2008310 0c-34606,0 -62834,-28228 -62834,-62834l0 -1653 0 -1380212c0,-34605 28228,-62833 62834,-62833l1653 0 2008311 0c34605,0 62833,28228 62833,62833l0 1654 0 1380211c0,34606 -28228,62834 -62833,62834zm-1947131 -125667l1884297 0 0 -1256198 -1884297 0 0 1256198z"/>
   <path class="fil1" d="M4329253 4300907l-1653 0 -2008311 0c-34605,0 -62833,-28228 -62833,-62833l0 -1654 0 -1380329c0,-34606 28228,-62834 62833,-62834l1654 0 2008310 0c34606,0 62834,28228 62834,62834l0 1653 0 1380330c0,34605 -28228,62833 -62834,62833zm-1947130 -125667l1884297 0 0 -1256316 -1884297 0 0 1256316z"/>
  </g>
 </g>
</svg>
