<?xml version="1.0" encoding="UTF-8" standalone="no"?>
<svg width="44px" height="44px" viewBox="0 0 44 44" version="1.1" xmlns="http://www.w3.org/2000/svg" xmlns:xlink="http://www.w3.org/1999/xlink">
    <!-- Generator: Sketch 40.1 (33804) - http://www.bohemiancoding.com/sketch -->
    <title>mus-pause</title>
    <desc>Created with Sketch.</desc>
    <defs></defs>
    <g id="44px-Line" stroke="none" stroke-width="1" fill="none" fill-rule="evenodd">
        <g id="mus-pause" fill="#FFFFFF">
            <path d="M14,5 L10,5 C8.343,5 7,6.343 7,8 L7,36 C7,37.657 8.343,39 10,39 L14,39 C15.657,39 17,37.657 17,36 L17,8 C17,6.343 15.657,5 14,5 L14,5 Z" id="Stroke-5"></path>
            <path d="M34,5 L30,5 C28.343,5 27,6.343 27,8 L27,36 C27,37.657 28.343,39 30,39 L34,39 C35.657,39 37,37.657 37,36 L37,8 C37,6.343 35.657,5 34,5 L34,5 Z" id="Stroke-7"></path>
        </g>
    </g>
</svg>