<?xml version="1.0" encoding="UTF-8"?>
<!DOCTYPE svg PUBLIC "-//W3C//DTD SVG 1.1//EN" "http://www.w3.org/Graphics/SVG/1.1/DTD/svg11.dtd">
<!-- Creator: CorelDRAW X7 -->
<svg xmlns="http://www.w3.org/2000/svg" xml:space="preserve" width="177px" height="44px" version="1.1" style="shape-rendering:geometricPrecision; text-rendering:geometricPrecision; image-rendering:optimizeQuality; fill-rule:evenodd; clip-rule:evenodd"
viewBox="0 0 177000 43743"
 xmlns:xlink="http://www.w3.org/1999/xlink">
 <defs>
  <style type="text/css">
   <![CDATA[
    .fil1 {fill:#2D2D2D}
    .fil0 {fill:#2D2D2D;fill-rule:nonzero}
    .fil2 {fill:#57A7B3;fill-rule:nonzero}
    .fil3 {fill:#FECC01;fill-rule:nonzero}
   ]]>
  </style>
 </defs>
 <g id="Layer_x0020_1">
  <metadata id="CorelCorpID_0Corel-Layer"/>
  <g id="_1463034576">
   <path class="fil0" d="M60343 9682l4008 0 0 3300 94 0c660,-1352 1697,-2334 3111,-2946 1415,-613 2970,-920 4667,-920 1886,0 3528,346 4926,1037 1399,691 2562,1627 3489,2805 928,1179 1626,2538 2098,4078 471,1540 707,3174 707,4903 0,1728 -228,3362 -684,4902 -455,1540 -1146,2883 -2074,4030 -927,1147 -2090,2051 -3488,2711 -1398,660 -3025,990 -4879,990 -597,0 -1265,-64 -2003,-189 -739,-126 -1469,-330 -2193,-613 -722,-283 -1406,-668 -2050,-1154 -644,-488 -1187,-1093 -1627,-1815l-94 0c0,4314 0,8628 0,12942l-4007 0c0,-11354 0,-22707 0,-34060l-1 -1zm18857 11974c0,-1132 -149,-2240 -448,-3324 -299,-1083 -754,-2050 -1367,-2898 -613,-849 -1399,-1525 -2357,-2027 -959,-504 -2083,-755 -3371,-755 -1352,0 -2498,268 -3441,802 -942,534 -1713,1234 -2310,2098 -597,863 -1030,1846 -1297,2946 -268,1099 -401,2216 -401,3346 0,1195 142,2350 425,3466 282,1115 731,2098 1343,2946 613,849 1407,1532 2381,2050 975,519 2153,779 3536,779 1383,0 2538,-268 3465,-802 927,-534 1674,-1241 2239,-2121 566,-881 974,-1886 1226,-3018 251,-1131 377,-2294 377,-3488l0 0z"/>
   <path class="fil1" d="M12303 2825l-2358 0c-470,0 -848,118 -1130,354 -284,235 -511,542 -684,919 -173,377 -291,810 -354,1297 -63,487 -94,982 -94,1485l0 8626c0,1100 -165,2035 -495,2805 -330,770 -715,1407 -1155,1909 -440,503 -888,880 -1344,1132 -455,252 -824,408 -1107,471l0 141c283,32 652,159 1107,378 456,220 904,573 1344,1060 440,487 825,1125 1155,1910 330,785 495,1775 495,2970l0 8579c0,471 31,951 94,1437 63,487 181,927 354,1320 173,393 400,707 684,942 282,237 660,355 1130,355l2358 0 0 2828 -3301 0c-596,0 -1194,-134 -1790,-401 -598,-267 -1139,-660 -1627,-1178 -487,-518 -888,-1163 -1202,-1932 -314,-770 -471,-1658 -471,-2664l0 -8531c0,-849 -110,-1620 -330,-2311 -220,-690 -510,-1272 -872,-1744 -361,-471 -777,-832 -1249,-1083 -471,-252 -959,-378 -1461,-378l0 -3205c502,0 990,-134 1461,-401 472,-267 888,-644 1249,-1131 362,-487 652,-1076 872,-1768 220,-691 330,-1445 330,-2262l0 -8579c0,-1006 157,-1893 471,-2664 314,-770 715,-1414 1202,-1932 488,-519 1029,-912 1627,-1179 597,-266 1194,-400 1790,-400l3301 0 0 2829 0 -4zm6900 18808l-8486 -11548 5138 0 5845 8531 6081 -8531 4808 0 -8390 11218 9427 13151 -5138 0 -6788 -10087 -6788 10087 -4855 0 9145 -12821 1 0z"/>
   <path class="fil1" d="M164697 2825l2357 0c471,0 848,118 1131,354 283,235 511,542 684,919 173,377 290,810 353,1297 63,487 95,982 95,1485l0 8626c0,1100 165,2035 495,2805 329,770 715,1407 1155,1909 439,503 887,880 1343,1132 456,252 825,408 1108,471l0 141c-283,32 -652,159 -1108,378 -456,220 -903,573 -1343,1060 -440,487 -825,1125 -1155,1910 -330,785 -495,1775 -495,2970l0 8579c0,471 -32,951 -95,1437 -63,487 -180,927 -353,1320 -173,393 -401,707 -684,942 -283,237 -660,355 -1131,355l-2357 0 0 2828 3299 0c598,0 1195,-134 1792,-401 598,-267 1139,-660 1627,-1178 487,-518 888,-1163 1202,-1932 314,-770 471,-1658 471,-2664l0 -8531c0,-849 110,-1620 330,-2311 220,-690 510,-1272 872,-1744 361,-471 777,-832 1249,-1083 471,-252 959,-378 1461,-378l0 -3205c-502,0 -990,-134 -1461,-401 -472,-267 -888,-644 -1249,-1131 -362,-487 -652,-1076 -872,-1768 -220,-691 -330,-1445 -330,-2262l0 -8579c0,-1006 -157,-1893 -471,-2664 -314,-770 -715,-1414 -1202,-1932 -488,-519 -1029,-912 -1627,-1179 -597,-266 -1194,-400 -1792,-400l-3299 0 0 2829 0 -4zm-16893 15084c314,-1540 974,-2734 1979,-3583 1006,-848 2358,-1272 4055,-1272 1446,0 2655,267 3629,801 974,534 1752,1241 2334,2122 581,879 997,1892 1249,3040 251,1146 377,2333 377,3558 0,1132 -134,2232 -400,3300 -268,1068 -684,2019 -1250,2851 -565,833 -1304,1501 -2215,2003 -912,504 -1996,755 -3252,755 -1980,0 -3527,-519 -4643,-1557 -1117,-1036 -1799,-2498 -2051,-4383l-4100 0c439,3017 1563,5342 3370,6977 1807,1634 4266,2451 7377,2451 1854,0 3496,-299 4925,-896 1430,-597 2625,-1446 3583,-2545 959,-1100 1681,-2412 2168,-3936 488,-1525 732,-3198 732,-5020 0,-1823 -237,-3527 -708,-5114 -471,-1588 -1185,-2971 -2144,-4149 -959,-1178 -2161,-2105 -3606,-2781 -1446,-676 -3127,-1014 -5044,-1014 -1383,0 -2679,165 -3888,495 -1210,330 -2279,841 -3205,1533 -928,690 -1689,1563 -2287,2616 -597,1052 -974,2302 -1131,3747l4148 0 -2 1z"/>
   <path class="fil0" d="M119448 21892c0,-1791 251,-3466 754,-5021 503,-1555 1257,-2907 2263,-4053 1005,-1147 2247,-2051 3724,-2712 1478,-659 3174,-990 5092,-990 1948,0 3653,330 5114,990 1462,661 2695,1564 3701,2712 1005,1146 1760,2498 2263,4053 503,1556 754,3230 754,5021 0,1791 -251,3457 -754,4997 -503,1540 -1257,2883 -2263,4030 -1006,1147 -2239,2043 -3701,2687 -1461,644 -3166,966 -5114,966 -1918,0 -3615,-322 -5092,-966 -1477,-644 -2719,-1540 -3724,-2687 -1006,-1147 -1760,-2490 -2263,-4030 -503,-1540 -754,-3206 -754,-4997z"/>
   <path class="fil2" d="M123691 21892c0,1477 197,2789 590,3936 392,1147 934,2105 1626,2876 691,770 1500,1359 2427,1767 927,410 1910,614 2947,614 1037,0 2019,-205 2946,-614 927,-407 1737,-997 2427,-1767 693,-771 1235,-1729 1627,-2876 393,-1147 590,-2459 590,-3936 0,-1477 -197,-2789 -590,-3937 -392,-1147 -934,-2114 -1627,-2899 -690,-785 -1500,-1383 -2427,-1791 -927,-408 -1909,-613 -2946,-613 -1037,0 -2020,205 -2947,613 -927,408 -1736,1006 -2427,1791 -692,785 -1234,1752 -1626,2899 -393,1148 -590,2460 -590,3937z"/>
   <path class="fil0" d="M84356 9682l3772 0 0 3583 94 0c1823,-2766 4447,-4149 7873,-4149 1508,0 2876,314 4102,943 1225,629 2090,1698 2592,3206 817,-1320 1894,-2342 3229,-3064 1337,-723 2806,-1085 4409,-1085 1224,0 2333,133 3323,400 989,268 1838,685 2545,1250 707,566 1257,1297 1650,2192 393,895 590,1972 590,3230l0 17866 -4007 0 0 -15981c0,-755 -64,-1462 -189,-2121 -126,-660 -362,-1234 -707,-1722 -345,-487 -825,-872 -1437,-1154 -613,-283 -1408,-425 -2381,-425 -1980,0 -3537,566 -4667,1698 -1132,1131 -1698,2640 -1698,4525l0 15179 -4006 0 0 -15981c0,-785 -71,-1508 -213,-2168 -141,-660 -385,-1234 -731,-1721 -346,-487 -809,-864 -1390,-1131 -581,-267 -1328,-401 -2240,-401 -1162,0 -2160,236 -2993,707 -832,472 -1508,1037 -2027,1697 -518,660 -895,1344 -1132,2051 -235,708 -353,1297 -353,1768l0 15179 -4007 0 0 -24371 -1 0z"/>
   <polygon class="fil0" points="53773,395 57780,395 57780,34054 53773,34054 "/>
   <path class="fil0" d="M30642 26347c534,2733 1712,4792 3535,6175 1823,1383 4118,2074 6883,2074 1949,0 3638,-314 5069,-944 1429,-628 2631,-1508 3605,-2639 974,-1132 1705,-2483 2192,-4054 488,-1571 763,-3284 825,-5138 0,-1855 -282,-3552 -848,-5092 -566,-1540 -1359,-2875 -2381,-4007 -1022,-1131 -2231,-2011 -3630,-2640 -1398,-628 -2929,-942 -4596,-942 -2168,0 -3968,448 -5398,1344 -1430,895 -2577,2034 -3441,3417 -864,1383 -1461,2891 -1791,4525 -330,1635 -464,3190 -401,4667l18243 0c32,1069 -94,2082 -377,3041 -282,958 -738,1807 -1367,2544 -629,739 -1430,1328 -2405,1769 -973,439 -2121,660 -3441,660 -1697,0 -3088,-393 -4173,-1178 -1083,-786 -1798,-1981 -2144,-3583l-3960 0 1 1z"/>
   <path class="fil3" d="M34507 19559c63,-944 275,-1840 636,-2688 362,-848 849,-1579 1462,-2192 612,-613 1335,-1100 2168,-1462 833,-361 1752,-542 2758,-542 1037,0 1972,181 2805,542 832,362 1548,857 2145,1485 597,629 1068,1360 1414,2193 346,833 550,1720 613,2664l-14001 0 0 0z"/>
  </g>
 </g>
</svg>
